# xmcd
#
# Track frame offsets: 
#        150
#        25932
#        52851
#        66877
#        87521
#        110535
#        123274
#        141327
#
# Disc length: 2204 seconds
#
# Revision: 0
# Processed by: cddbd v1.5.2PL0 Copyright (c) Steve Scherf et al.
# Submitted via: ExactAudioCopyFreeDBPlugin 1.0
#
DISCID=6b089a08
DTITLE=Anupam Roy - Durbine Chokh Rakhbo Na
DYEAR=2012
DGENRE=Bengali Modern
TTITLE0=Rondhre Rondhre Paap
TTITLE1=Tistaan 2
TTITLE2=Bijli Baati
TTITLE3=Ure Jaak
TTITLE4=Aloshyo
TTITLE5=Kaka
TTITLE6=Benche Thakar Gaan
TTITLE7=Amake Amar Moto
EXTD=
EXTT0=
EXTT1=
EXTT2=
EXTT3=
EXTT4=
EXTT5=
EXTT6=
EXTT7=
PLAYORDER=
